<svg width="20" height="20" viewBox="0 0 20 20" fill="none" xmlns="http://www.w3.org/2000/svg">
<path d="M9.99015 20C8.53202 20 7.19212 19.757 5.97044 19.2709C4.74877 18.7849 3.6913 18.0952 2.79803 17.202C1.90476 16.3087 1.21511 15.2512 0.729064 14.0296C0.243021 12.8079 0 11.468 0 10.0099C0 8.53859 0.243021 7.19212 0.729064 5.97044C1.21511 4.74877 1.90476 3.6913 2.79803 2.79803C3.6913 1.90476 4.74877 1.21511 5.97044 0.729064C7.19212 0.243021 8.53202 0 9.99015 0C11.4614 0 12.8079 0.243021 14.0296 0.729064C15.2512 1.21511 16.3087 1.90476 17.202 2.79803C18.0952 3.6913 18.7849 4.74877 19.2709 5.97044C19.757 7.19212 20 8.53859 20 10.0099C20 11.1921 19.8424 12.243 19.5271 13.1626C19.2118 14.069 18.7718 14.7849 18.2069 15.3103C17.6552 15.8358 17.0115 16.0985 16.2759 16.0985C15.6453 16.0985 15.1264 15.8949 14.7192 15.4877C14.312 15.0805 14.1084 14.5616 14.1084 13.931V13.3005C13.8588 13.6814 13.5107 14.0296 13.064 14.3448C12.6305 14.647 12.1445 14.8834 11.6059 15.0542C11.0805 15.225 10.5419 15.3103 9.99015 15.3103C8.96552 15.3103 8.05255 15.087 7.25123 14.6404C6.44992 14.1806 5.81938 13.5501 5.35961 12.7488C4.91297 11.9475 4.68966 11.0345 4.68966 10.0099C4.68966 8.97209 4.91297 8.05255 5.35961 7.25123C5.81938 6.44992 6.44992 5.82594 7.25123 5.37931C8.05255 4.91954 8.96552 4.68966 9.99015 4.68966C11.0279 4.68966 11.9409 4.91954 12.7291 5.37931C13.5304 5.82594 14.1544 6.44992 14.601 7.25123C15.0608 8.05255 15.2906 8.97209 15.2906 10.0099V13.5369C15.2906 14.0361 15.3826 14.3908 15.5665 14.601C15.7504 14.8112 15.9869 14.9163 16.2759 14.9163C16.775 14.9163 17.2151 14.7061 17.5961 14.2857C17.977 13.8654 18.2726 13.2874 18.4828 12.5517C18.7061 11.8161 18.8177 10.9688 18.8177 10.0099C18.8177 8.7225 18.601 7.54023 18.1675 6.46305C17.734 5.38588 17.1232 4.4532 16.335 3.66503C15.5468 2.87685 14.6141 2.26601 13.5369 1.83251C12.4598 1.39902 11.2775 1.18227 9.99015 1.18227C8.70279 1.18227 7.52053 1.39902 6.44335 1.83251C5.36617 2.26601 4.4335 2.87685 3.64532 3.66503C2.85714 4.4532 2.24631 5.38588 1.81281 6.46305C1.39245 7.54023 1.18227 8.7225 1.18227 10.0099C1.18227 11.2972 1.39245 12.4795 1.81281 13.5567C2.24631 14.6338 2.85714 15.5665 3.64532 16.3547C4.4335 17.1429 5.36617 17.7471 6.44335 18.1675C7.52053 18.601 8.70279 18.8177 9.99015 18.8177C10.6076 18.8177 11.2512 18.7455 11.9212 18.601C12.6043 18.4565 13.1691 18.2791 13.6158 18.069C13.8785 17.9376 14.0952 17.9048 14.266 17.9704C14.4368 18.0493 14.5222 18.22 14.5222 18.4828C14.5222 18.6929 14.3251 18.9163 13.931 19.1527C13.5501 19.3892 13.0181 19.5862 12.335 19.7438C11.665 19.9146 10.8834 20 9.99015 20ZM9.99015 14.1281C10.7915 14.1281 11.5008 13.9507 12.1182 13.5961C12.7356 13.2414 13.2217 12.7553 13.5764 12.1379C13.931 11.5205 14.1084 10.8112 14.1084 10.0099C14.1084 9.1954 13.931 8.47947 13.5764 7.86207C13.2217 7.24466 12.7356 6.75862 12.1182 6.40394C11.5008 6.04926 10.7915 5.87192 9.99015 5.87192C9.18883 5.87192 8.47947 6.04926 7.86207 6.40394C7.24466 6.75862 6.75862 7.24466 6.40394 7.86207C6.04926 8.47947 5.87192 9.1954 5.87192 10.0099C5.87192 10.8112 6.04926 11.5205 6.40394 12.1379C6.75862 12.7553 7.24466 13.2414 7.86207 13.5961C8.47947 13.9507 9.18883 14.1281 9.99015 14.1281Z" fill="#686868"/>
</svg>
