<svg width="22" height="22" viewBox="0 0 22 22" fill="none" xmlns="http://www.w3.org/2000/svg">
<path d="M13.5882 20.6593C11.57 21.2 9.43302 21.0951 7.4775 20.3591C5.52199 19.6231 3.84613 18.293 2.68531 16.5557C1.52448 14.8184 0.936992 12.7611 1.00536 10.6728C1.07372 8.58449 1.7945 6.57005 3.06647 4.91239C4.33844 3.25473 6.09769 2.03713 8.09716 1.4306C10.0966 0.824066 12.2358 0.859072 14.2144 1.5307C16.1929 2.20233 17.9114 3.47683 19.1285 5.17522C20.3455 6.87361 21 8.91057 21 11V12.6667C21 14.2008 19.7563 15.4444 18.2222 15.4444C16.6881 15.4444 15.4444 14.2008 15.4444 12.6667V7.66667M15.4444 11C15.4444 13.4546 13.4546 15.4444 11 15.4444C8.5454 15.4444 6.55556 13.4546 6.55556 11C6.55556 8.5454 8.5454 6.55556 11 6.55556C13.4546 6.55556 15.4444 8.5454 15.4444 11Z" stroke="current" stroke-width="1.5" stroke-linecap="round"/>
</svg>
