<svg width="20" height="20" viewBox="0 0 20 20" fill="none" xmlns="http://www.w3.org/2000/svg">
<path d="M13.4859 10C13.4859 9.58579 13.1501 9.25 12.7359 9.25C12.3217 9.25 11.9859 9.58579 11.9859 10H13.4859ZM9.98819 11.8214C9.57398 11.8214 9.23819 12.1572 9.23819 12.5714C9.23819 12.9856 9.57398 13.3214 9.98819 13.3214V11.8214ZM11.4167 8.72753C11.7196 9.01015 12.1941 8.99377 12.4768 8.69095C12.7594 8.38812 12.743 7.91353 12.4402 7.63092L11.4167 8.72753ZM7.49222 12.3273C7.79 12.6152 8.2648 12.6072 8.55273 12.3095C8.84066 12.0117 8.83268 11.5369 8.5349 11.249L7.49222 12.3273ZM18.5998 10.7099L18.027 10.2258L18.027 10.2258L18.5998 10.7099ZM8.66102 14.3943C8.24761 14.3685 7.89157 14.6827 7.86578 15.0962C7.83999 15.5096 8.15421 15.8656 8.56762 15.8914L8.66102 14.3943ZM16.833 6.38793C16.495 6.14855 16.0269 6.22853 15.7875 6.56656C15.5481 6.9046 15.6281 7.37269 15.9661 7.61207L16.833 6.38793ZM18.6859 9.23746L18.0742 9.67134L18.0742 9.67135L18.6859 9.23746ZM18.999 9.97431L18.2498 9.94098L18.2498 9.94098L18.999 9.97431ZM1.38818 9.15675L0.788078 8.70688L0.788077 8.70688L1.38818 9.15675ZM5.66196 14.0703L6.1714 14.6207L6.17588 14.6165L5.66196 14.0703ZM1.47438 10.7889L0.91359 11.287L0.91359 11.287L1.47438 10.7889ZM3.06739 15.4496C2.76339 15.7309 2.74502 16.2054 3.02636 16.5094C3.30771 16.8134 3.78222 16.8318 4.08623 16.5504L3.06739 15.4496ZM16.9087 4.55074C17.2128 4.26958 17.2315 3.79507 16.9503 3.4909C16.6691 3.18673 16.1946 3.16809 15.8905 3.44926L16.9087 4.55074ZM1.00082 9.98014L1.75011 9.94744L1.00082 9.98014ZM11.9859 10C11.9859 10.9599 11.1391 11.8214 9.98819 11.8214V13.3214C11.8723 13.3214 13.4859 11.8804 13.4859 10H11.9859ZM7.99046 10C7.99046 9.04013 8.83725 8.17857 9.98819 8.17857V6.67857C8.10407 6.67857 6.49046 8.11955 6.49046 10H7.99046ZM9.98819 8.17857C10.5548 8.17857 11.058 8.3927 11.4167 8.72753L12.4402 7.63092C11.8049 7.03801 10.9364 6.67857 9.98819 6.67857V8.17857ZM8.5349 11.249C8.19087 10.9163 7.99046 10.476 7.99046 10H6.49046C6.49046 10.9137 6.87908 11.7344 7.49222 12.3273L8.5349 11.249ZM18.027 10.2258C16.8272 11.6454 13.6362 14.7047 8.66102 14.3943L8.56762 15.8914C14.2504 16.2459 17.859 12.7484 19.1727 11.1941L18.027 10.2258ZM15.9661 7.61207C17.0386 8.37152 17.7026 9.14745 18.0742 9.67134L19.2977 8.80357C18.8423 8.16155 18.0622 7.25838 16.833 6.38793L15.9661 7.61207ZM19.1727 11.1941C19.4 10.9251 19.7228 10.5817 19.7483 10.0076L18.2498 9.94098C18.2492 9.95378 18.2481 9.95204 18.2508 9.94343C18.2533 9.93519 18.2548 9.93527 18.2469 9.94858C18.2373 9.96468 18.2187 9.99236 18.1804 10.0409C18.1413 10.0905 18.0938 10.1468 18.027 10.2258L19.1727 11.1941ZM18.0742 9.67135C18.1306 9.75092 18.1695 9.80598 18.2011 9.85406C18.2317 9.90077 18.2449 9.92528 18.2507 9.93755C18.2551 9.9467 18.2528 9.94381 18.2509 9.93427C18.249 9.92499 18.2505 9.92469 18.2498 9.94098L19.7483 10.0076C19.7737 9.43613 19.4943 9.0808 19.2977 8.80357L18.0742 9.67135ZM1.98827 9.60662C3.01251 8.24036 5.55814 5.60714 9.98819 5.60714V4.10714C4.88832 4.10714 1.95127 7.15526 0.788078 8.70688L1.98827 9.60662ZM9.98819 5.60714C11.63 5.60714 13.0049 5.96697 14.1376 6.48479L14.7613 5.12058C13.4441 4.51844 11.8573 4.10714 9.98819 4.10714V5.60714ZM5.99804 13.3998C4.1632 12.4801 2.78204 11.1319 2.03516 10.2909L0.91359 11.287C1.7265 12.2023 3.25475 13.7026 5.32588 14.7407L5.99804 13.3998ZM13.9355 5.25644L5.14803 13.524L6.17588 14.6165L14.9634 6.34893L13.9355 5.25644ZM5.15254 13.5198L3.06739 15.4496L4.08623 16.5504L6.17138 14.6207L5.15254 13.5198ZM14.9585 6.35343L16.9087 4.55074L15.8905 3.44926L13.9403 5.25194L14.9585 6.35343ZM0.788077 8.70688C0.559939 9.01121 0.225134 9.40789 0.251536 10.0128L1.75011 9.94744C1.7497 9.93811 1.75069 9.94209 1.7484 9.95177C1.74637 9.96035 1.74529 9.95816 1.75516 9.9392C1.76649 9.91741 1.78735 9.88267 1.82802 9.8245C1.86927 9.7655 1.9195 9.69836 1.98827 9.60662L0.788077 8.70688ZM2.03516 10.2909C1.9561 10.2019 1.89747 10.1358 1.8488 10.0773C1.80067 10.0196 1.7744 9.98357 1.75916 9.95971C1.74551 9.93834 1.74541 9.93388 1.7478 9.941C1.7507 9.94963 1.75041 9.95435 1.75011 9.94744L0.251536 10.0128C0.277955 10.6182 0.653861 10.9945 0.91359 11.287L2.03516 10.2909Z" fill="current"/>
</svg>
