<svg width="20" height="20" viewBox="0 0 20 20" fill="none" xmlns="http://www.w3.org/2000/svg">
<path d="M10 5C5.22878 5 2.48383 7.76176 1.38869 9.18018C1.12167 9.52602 0.988158 9.69894 1.00082 9.9807C1.01349 10.2625 1.16735 10.4307 1.47507 10.7671C2.7569 12.1685 5.8591 15 10 15C14.1409 15 17.2431 12.1685 18.5249 10.7671C18.8326 10.4307 18.9865 10.2625 18.9992 9.9807C19.0118 9.69894 18.8783 9.52602 18.6113 9.18018C17.5162 7.76176 14.7712 5 10 5Z" stroke="current" stroke-width="1.5"/>
<path d="M12.7513 10C12.7513 11.3807 11.5195 12.5 10 12.5C8.48047 12.5 7.24865 11.3807 7.24865 10C7.24865 8.61929 8.48047 7.5 10 7.5C11.5195 7.5 12.7513 8.61929 12.7513 10Z" stroke="current" stroke-width="1.5"/>
</svg>
