<?xml version="1.0" standalone="no"?>
<!DOCTYPE svg PUBLIC "-//W3C//DTD SVG 20010904//EN"
 "http://www.w3.org/TR/2001/REC-SVG-20010904/DTD/svg10.dtd">
<svg version="1.0" xmlns="http://www.w3.org/2000/svg"
 width="192.000000pt" height="192.000000pt" viewBox="0 0 192.000000 192.000000"
 preserveAspectRatio="xMidYMid meet">
<metadata>
Created by potrace 1.14, written by Peter Selinger 2001-2017
</metadata>
<g transform="translate(0.000000,192.000000) scale(0.100000,-0.100000)"
fill="#000000" stroke="none">
<path d="M1260 1593 c-119 -43 -315 -184 -545 -393 -83 -75 -506 -499 -590
-593 -111 -122 -126 -165 -84 -234 51 -83 154 -84 221 -3 121 146 560 583 744
740 59 50 170 137 199 156 l30 19 -30 -40 c-16 -22 -65 -83 -108 -135 -43 -52
-86 -104 -95 -115 -78 -94 -143 -208 -163 -288 -19 -76 -7 -179 25 -221 30
-39 83 -61 132 -53 62 10 89 26 366 219 l26 18 -5 -99 c-5 -91 -3 -103 17
-136 12 -19 35 -42 50 -50 38 -20 123 -19 191 1 179 53 299 185 260 287 -11
30 -57 76 -75 78 -6 0 -20 2 -31 5 -38 7 -76 -8 -111 -44 l-35 -36 6 88 c4 48
4 105 0 126 -7 42 -51 95 -90 110 -60 23 -156 -6 -275 -81 l-35 -23 21 25 c11
13 31 35 43 49 13 14 42 50 65 80 22 30 47 61 53 68 7 7 32 52 55 99 41 83 43
90 43 177 0 79 -4 96 -25 127 -53 80 -151 108 -250 72z"/>
</g>
</svg>
